<svg width="40" height="40" viewBox="0 0 40 40" fill="none" xmlns="http://www.w3.org/2000/svg">
<circle cx="20" cy="20" r="19.5" fill="white" fill-opacity="0.1" stroke="white"/>
<path d="M15 18.75H13C10.58 18.75 9.25 17.42 9.25 15V13C9.25 10.58 10.58 9.25 13 9.25H15C17.42 9.25 18.75 10.58 18.75 13V15C18.75 17.42 17.42 18.75 15 18.75ZM13 10.75C11.42 10.75 10.75 11.42 10.75 13V15C10.75 16.58 11.42 17.25 13 17.25H15C16.58 17.25 17.25 16.58 17.25 15V13C17.25 11.42 16.58 10.75 15 10.75H13Z" fill="white"/>
<path d="M27 18.75H25C22.58 18.75 21.25 17.42 21.25 15V13C21.25 10.58 22.58 9.25 25 9.25H27C29.42 9.25 30.75 10.58 30.75 13V15C30.75 17.42 29.42 18.75 27 18.75ZM25 10.75C23.42 10.75 22.75 11.42 22.75 13V15C22.75 16.58 23.42 17.25 25 17.25H27C28.58 17.25 29.25 16.58 29.25 15V13C29.25 11.42 28.58 10.75 27 10.75H25Z" fill="white"/>
<path d="M27 30.75H25C22.58 30.75 21.25 29.42 21.25 27V25C21.25 22.58 22.58 21.25 25 21.25H27C29.42 21.25 30.75 22.58 30.75 25V27C30.75 29.42 29.42 30.75 27 30.75ZM25 22.75C23.42 22.75 22.75 23.42 22.75 25V27C22.75 28.58 23.42 29.25 25 29.25H27C28.58 29.25 29.25 28.58 29.25 27V25C29.25 23.42 28.58 22.75 27 22.75H25Z" fill="white"/>
<path d="M15 30.75H13C10.58 30.75 9.25 29.42 9.25 27V25C9.25 22.58 10.58 21.25 13 21.25H15C17.42 21.25 18.75 22.58 18.75 25V27C18.75 29.42 17.42 30.75 15 30.75ZM13 22.75C11.42 22.75 10.75 23.42 10.75 25V27C10.75 28.58 11.42 29.25 13 29.25H15C16.58 29.25 17.25 28.58 17.25 27V25C17.25 23.42 16.58 22.75 15 22.75H13Z" fill="white"/>
</svg>
